<svg width="50" height="46" viewBox="0 0 50 46" fill="none" xmlns="http://www.w3.org/2000/svg">
<g clip-path="url(#clip0)">
<path d="M16.8983 20.728C22.2497 20.728 26.5879 16.3161 26.5879 10.8739C26.5879 5.4316 22.2497 1.01978 16.8983 1.01978C11.5469 1.01978 7.20874 5.4316 7.20874 10.8739C7.20874 16.3161 11.5469 20.728 16.8983 20.728Z" fill="#7FBA28"/>
<path d="M34.498 9.34156C34.1485 9.14124 33.781 8.97537 33.4005 8.84621C33.3632 7.8401 33.1207 6.85285 32.6883 5.94711C32.2559 5.04137 31.6432 4.23691 30.8889 3.58477C30.1346 2.93264 29.2553 2.44706 28.3067 2.15886C27.3581 1.87066 26.3609 1.78612 25.3785 1.9106C24.3961 2.03509 23.4498 2.36588 22.5998 2.882C21.7497 3.39811 21.0144 4.08828 20.4406 4.90871C19.8667 5.72914 19.4668 6.66192 19.2662 7.64787C19.0656 8.63381 19.0687 9.6514 19.2753 10.6361C18.4882 11.1201 17.8372 11.8026 17.3854 12.6175C16.7426 13.7824 16.5385 15.1455 16.8113 16.4522C17.0841 17.759 17.815 18.9202 18.8678 19.7191C19.9205 20.518 21.2232 20.9001 22.5326 20.7941C23.842 20.6881 25.0688 20.1011 25.9839 19.1428C26.5409 19.9047 27.2489 20.5392 28.0621 21.0053C29.5829 21.8354 31.3633 22.0251 33.0201 21.5336C34.677 21.0422 36.078 19.9088 36.9215 18.3775C37.765 16.8462 37.9837 15.0393 37.5304 13.3457C37.0772 11.6521 35.9883 10.2071 34.498 9.32174V9.34156Z" fill="#6F935C"/>
<path d="M45.35 11.3958C45.35 17.2144 37.7906 21.9632 37.7906 21.9632C37.7906 21.9632 30.2312 17.2475 30.2312 11.3958C30.2312 5.54407 37.7906 0.828369 37.7906 0.828369C37.7906 0.828369 45.35 5.57709 45.35 11.3958Z" fill="#50772D"/>
<path d="M15.515 21.9829C15.515 27.6827 8.11145 32.306 8.11145 32.306C8.11145 32.306 0.707886 27.6827 0.707886 21.9829C0.707886 16.2831 8.11145 11.6665 8.11145 11.6665C8.11145 11.6665 15.515 16.2831 15.515 21.9829Z" fill="#6F935C"/>
<path d="M11.1248 24.9747C11.0183 24.8442 10.8691 24.7571 10.7045 24.7292C10.54 24.7013 10.3711 24.7345 10.2286 24.8228L8.89078 25.6418V24.3209C8.89078 24.1457 8.82236 23.9777 8.70057 23.8538C8.57877 23.73 8.41359 23.6604 8.24135 23.6604C8.06911 23.6604 7.90392 23.73 7.78213 23.8538C7.66034 23.9777 7.59191 24.1457 7.59191 24.3209V26.7448V28.178L6.24758 27.1344C6.11136 27.0307 5.9427 26.9809 5.77304 26.9943C5.60337 27.0076 5.44428 27.0833 5.32539 27.2071C5.27059 27.2652 5.22874 27.3347 5.20268 27.4108C5.17662 27.4868 5.16695 27.5677 5.17435 27.6479C5.18174 27.7281 5.20601 27.8057 5.24552 27.8755C5.28503 27.9453 5.33885 28.0057 5.40332 28.0525L7.59191 29.7499V42.1666C7.59191 42.3417 7.66034 42.5097 7.78213 42.6336C7.90392 42.7574 8.06911 42.827 8.24135 42.827C8.41359 42.827 8.57877 42.7574 8.70057 42.6336C8.82236 42.5097 8.89078 42.3417 8.89078 42.1666V27.0618L10.9495 25.8069C11.0184 25.7674 11.0783 25.7135 11.1252 25.6487C11.1721 25.5839 11.205 25.5097 11.2216 25.431C11.2381 25.3523 11.2381 25.271 11.2214 25.1923C11.2047 25.1136 11.1718 25.0395 11.1248 24.9747V24.9747Z" fill="#1D1D1B"/>
<path d="M18.8921 33.039C24.1359 33.039 28.3868 28.7159 28.3868 23.383C28.3868 18.0502 24.1359 13.7271 18.8921 13.7271C13.6483 13.7271 9.39734 18.0502 9.39734 23.383C9.39734 28.7159 13.6483 33.039 18.8921 33.039Z" fill="#50772D"/>
<path d="M21.9834 27.0685C21.8729 26.9257 21.7149 26.8288 21.5392 26.7959C21.3634 26.7631 21.1819 26.7966 21.0287 26.8902L19.6194 27.7488V26.3618C19.6028 26.1871 19.5227 26.0248 19.3948 25.9068C19.267 25.7888 19.1005 25.7234 18.9278 25.7234C18.7551 25.7234 18.5886 25.7888 18.4607 25.9068C18.3329 26.0248 18.2528 26.1871 18.2361 26.3618V28.9244V30.4369L16.8204 29.3339C16.6765 29.2251 16.4989 29.1725 16.32 29.1858C16.1411 29.1992 15.973 29.2775 15.8462 29.4066C15.7879 29.4677 15.7433 29.541 15.7156 29.6215C15.6879 29.7019 15.6777 29.7874 15.6857 29.8722C15.6937 29.9571 15.7198 30.0391 15.7621 30.1126C15.8044 30.1862 15.8619 30.2495 15.9306 30.2982L18.2361 32.0881V45.2114C18.2528 45.3862 18.3329 45.5485 18.4607 45.6665C18.5886 45.7845 18.7551 45.8499 18.9278 45.8499C19.1005 45.8499 19.267 45.7845 19.3948 45.6665C19.5227 45.5485 19.6028 45.3862 19.6194 45.2114V29.2679L21.7885 27.947C21.8635 27.9076 21.9291 27.852 21.9808 27.7841C22.0324 27.7162 22.0687 27.6377 22.0873 27.5539C22.1059 27.4702 22.1062 27.3834 22.0882 27.2995C22.0703 27.2157 22.0345 27.1368 21.9834 27.0685V27.0685Z" fill="#1D1D1B"/>
<path d="M38.5764 21.8837C38.2348 21.6875 37.8761 21.5239 37.5049 21.395C37.423 20.4451 37.1537 19.5218 36.713 18.6802C36.2723 17.8386 35.6693 17.096 34.94 16.4968C34.2107 15.8976 33.3701 15.4541 32.4684 15.1927C31.5668 14.9313 30.6226 14.8575 29.6922 14.9757C28.7619 15.0939 27.8645 15.4015 27.0538 15.8804C26.243 16.3592 25.5355 16.9994 24.9735 17.7626C24.4115 18.5258 24.0066 19.3964 23.783 20.3224C23.5593 21.2484 23.5215 22.2107 23.6719 23.1518C22.8959 23.6372 22.2579 24.3202 21.821 25.1332C21.1781 26.2769 20.9695 27.6205 21.2344 28.91C21.4993 30.1996 22.2195 31.3457 23.2589 32.132C24.2983 32.9183 25.5848 33.2901 26.8755 33.1773C28.1661 33.0646 29.3714 32.4749 30.2637 31.5199C30.8365 32.307 31.5753 32.9537 32.426 33.4125C33.2767 33.8712 34.2177 34.1305 35.1797 34.1711C36.1418 34.2117 37.1006 34.0327 37.9858 33.6473C38.871 33.2618 39.66 32.6797 40.295 31.9435C40.9301 31.2074 41.3949 30.336 41.6555 29.3933C41.9161 28.4506 41.9658 27.4605 41.801 26.4957C41.6362 25.5309 41.261 24.6159 40.703 23.8178C40.145 23.0198 39.4184 22.3589 38.5764 21.8837V21.8837Z" fill="#7FBA28"/>
<path d="M33.5693 28.2044C33.4651 28.0689 33.3154 27.9771 33.1489 27.9467C32.9824 27.9162 32.8107 27.9492 32.6666 28.0393L31.3288 28.8516V27.5307C31.3288 27.3555 31.2603 27.1875 31.1385 27.0637C31.0168 26.9398 30.8516 26.8702 30.6793 26.8702C30.5071 26.8702 30.3419 26.9398 30.2201 27.0637C30.0983 27.1875 30.0299 27.3555 30.0299 27.5307V29.9546V31.4274L28.6856 30.3839C28.5488 30.2815 28.3805 30.2325 28.2112 30.2459C28.0419 30.2592 27.883 30.334 27.7634 30.4566C27.7075 30.5142 27.6648 30.5835 27.6381 30.6597C27.6114 30.7359 27.6014 30.8172 27.6088 30.8977C27.6163 30.9782 27.6409 31.0562 27.6811 31.126C27.7212 31.1958 27.7759 31.2559 27.8413 31.3019L30.0299 32.9993V45.4292C30.0299 45.6044 30.0983 45.7724 30.2201 45.8963C30.3419 46.0201 30.5071 46.0897 30.6793 46.0897C30.8516 46.0897 31.0168 46.0201 31.1385 45.8963C31.2603 45.7724 31.3288 45.6044 31.3288 45.4292V30.2914L33.3875 29.0366C33.4569 28.9976 33.5175 28.9441 33.565 28.8796C33.6126 28.8151 33.646 28.741 33.6632 28.6622C33.6804 28.5835 33.681 28.502 33.6648 28.423C33.6486 28.3441 33.616 28.2695 33.5693 28.2044V28.2044Z" fill="#1D1D1B"/>
<path d="M49.2986 22.8415C49.2986 28.5413 41.8951 33.1579 41.8951 33.1579C41.8951 33.1579 34.4915 28.5347 34.4915 22.8415C34.4915 17.1483 41.8951 12.5184 41.8951 12.5184C41.8951 12.5184 49.2986 17.1285 49.2986 22.8415Z" fill="#6F935C"/>
<path d="M8.00106 10.8937C7.99511 9.24916 8.43028 7.63413 9.25975 6.22244C10.0892 4.81074 11.2816 3.65584 12.7085 2.88206C14.1353 2.10827 15.7427 1.74489 17.3576 1.83105C18.9724 1.9172 20.5336 2.44963 21.873 3.37101C22.3047 3.00747 22.7727 2.69092 23.2693 2.42654C21.7205 1.20829 19.8665 0.456776 17.9183 0.257573C15.9701 0.0583691 14.0061 0.41948 12.2498 1.29979C10.4936 2.1801 9.01564 3.54423 7.98434 5.23687C6.95303 6.92951 6.40978 8.88263 6.41644 10.8739C6.41644 11.2371 6.41644 11.5938 6.4684 11.9438C7.19576 11.3956 7.70232 11.0786 7.76727 11.0522L8.00106 10.8937Z" fill="black"/>
<path d="M25.0227 3.02766C26.2598 2.67263 27.5723 2.69697 28.7959 3.09763C30.0194 3.49829 31.0993 4.25743 31.9002 5.27983C32.1405 4.96942 32.4003 4.61937 32.673 4.34198C31.7177 3.19642 30.4582 2.3549 29.0451 1.91802C27.632 1.48115 26.1251 1.46741 24.7045 1.87845C24.2079 2.01644 23.7269 2.2068 23.2692 2.44645C23.614 2.70867 23.9436 2.99094 24.2564 3.29184C24.506 3.18731 24.762 3.09907 25.0227 3.02766V3.02766Z" fill="black"/>
<path d="M22.8212 4.13723C23.26 3.79109 23.7428 3.50673 24.2564 3.29184C23.9442 2.98415 23.6146 2.69526 23.2693 2.42664C22.7727 2.69102 22.3047 3.00756 21.873 3.3711C22.2072 3.60231 22.5241 3.85839 22.8212 4.13723V4.13723Z" fill="black"/>
<path d="M37.7907 1.70683C39.2779 2.75696 44.6487 6.77257 44.6487 11.3958C44.6383 12.0696 44.5266 12.7378 44.3175 13.3772C44.6877 13.681 45.0838 14.0377 45.4994 14.4141C45.881 13.4501 46.0814 12.4218 46.0904 11.3826C46.0904 8.74075 44.7461 6.0989 42.0964 3.41082C40.9079 2.21518 39.6022 1.14627 38.1998 0.220786L37.8231 -0.010376L37.4465 0.220786C36.0441 1.14627 34.7384 2.21518 33.5498 3.41082C33.2576 3.70803 32.9848 4.01184 32.7186 4.30905C33.0415 4.69443 33.3245 5.11275 33.5628 5.55732C34.8088 4.09963 36.2291 2.80609 37.7907 1.70683V1.70683Z" fill="black"/>
<path d="M32.7186 6.59408C32.9718 6.23743 33.2381 5.89399 33.5174 5.57037C33.2775 5.13497 32.9946 4.72557 32.6731 4.34851C32.4003 4.65893 32.1406 4.97595 31.9003 5.28637C32.2226 5.6881 32.4972 6.12703 32.7186 6.59408V6.59408Z" fill="black"/>
<path d="M8.11152 31.4275C6.65678 30.4434 1.40935 26.5136 1.40935 21.9829C1.40935 18.4164 4.65652 15.2197 6.76069 13.5356C6.62283 13.0135 6.52512 12.4813 6.46844 11.9438C5.56659 12.6279 4.71169 13.3738 3.90967 14.1762C1.31193 16.8181 0.0130615 19.4203 0.0130615 21.9829C0.0130615 24.5455 1.31193 27.1741 3.90967 29.7895C5.07421 30.9663 6.35868 32.0135 7.74134 32.9135L8.11152 33.1447L8.4752 32.9135C9.53832 32.2265 10.5421 31.4487 11.4756 30.5887C11.1519 30.2386 10.8504 29.868 10.5729 29.4791C9.79273 30.1796 8.97071 30.8303 8.11152 31.4275Z" fill="black"/>
<path d="M8.11143 12.5185L8.15689 12.5582C8.05562 12.0093 8.00345 11.4522 8.00103 10.8938L7.74125 11.0523C7.70229 11.0523 7.19573 11.3958 6.44238 11.9439C6.49906 12.4814 6.59677 13.0136 6.73463 13.5356C7.31912 13.0865 7.7997 12.7365 8.11143 12.5185Z" fill="black"/>
<path d="M26.2 16.0519C26.168 16.0228 26.1374 15.9919 26.1086 15.9595C26.0367 16.085 25.9583 16.2038 25.8865 16.3227L26.2 16.0519Z" fill="black"/>
<path d="M22.3665 31.5069C20.7352 32.2277 18.9252 32.4205 17.1823 32.0589C15.4395 31.6973 13.8484 30.799 12.625 29.4858C12.5276 29.5915 12.4432 29.6906 12.3393 29.7897C12.06 30.0737 11.7808 30.3378 11.508 30.5888C13.0329 32.2232 15.0392 33.3088 17.2241 33.6817C19.409 34.0547 21.6539 33.6947 23.62 32.6561C23.1505 32.3356 22.7285 31.9486 22.3665 31.5069V31.5069Z" fill="black"/>
<path d="M12.5925 29.4857C12.2619 29.1395 11.96 28.7662 11.6898 28.3695C11.3196 28.7724 10.9429 29.1422 10.5728 29.4791C10.8503 29.868 11.1518 30.2386 11.4755 30.5887C11.7482 30.3377 12.0275 30.0735 12.3067 29.7895C12.4107 29.6904 12.4951 29.5914 12.5925 29.4857Z" fill="black"/>
<path d="M33.0562 32.8145C32.3274 32.4009 31.694 31.8334 31.1988 31.1501L30.7962 30.5953L30.3221 31.0907C29.6078 31.8372 28.6741 32.3272 27.662 32.4869C26.6498 32.6465 25.6141 32.4671 24.711 31.9757C24.3506 32.2198 23.9753 32.4404 23.5875 32.6362C23.7433 32.7418 23.8992 32.8475 24.0616 32.94C25.0958 33.5254 26.2792 33.7811 27.4581 33.6739C28.637 33.5667 29.7571 33.1016 30.6728 32.339C31.8943 33.7349 33.6064 34.5865 35.4398 34.71C37.2732 34.8336 39.0808 34.2192 40.4728 32.9994C40.2 32.8013 39.8818 32.5569 39.5376 32.2795C38.6308 33.0114 37.5307 33.453 36.3768 33.5483C35.2229 33.6435 34.0672 33.3881 33.0562 32.8145V32.8145Z" fill="black"/>
<path d="M24.6266 31.936C24.1735 31.6751 23.7654 31.3404 23.4187 30.9453C23.0791 31.1533 22.7278 31.3407 22.3666 31.5067C22.7186 31.9461 23.1296 32.333 23.5875 32.6559C23.9754 32.4601 24.3506 32.2395 24.711 31.9955C24.686 31.9714 24.6576 31.9513 24.6266 31.936V31.936Z" fill="black"/>
<path d="M46.0904 15.0215C45.8826 14.8102 45.6812 14.6121 45.4799 14.4271C45.2912 14.8917 45.0743 15.3439 44.8305 15.7811C46.6684 17.5577 48.5907 20.0873 48.5907 22.8414C48.5907 27.3656 43.3433 31.3019 41.895 32.2992L41.4664 31.9954C41.1706 32.3764 40.8377 32.726 40.4728 33.039C41.0832 33.4947 41.4859 33.7457 41.5249 33.7721L41.895 34.0032L42.2587 33.7721C43.6378 32.8669 44.9217 31.8201 46.0904 30.6481C48.6881 28.0062 49.987 25.404 49.987 22.8414C49.987 20.2788 48.6881 17.637 46.0904 15.0215Z" fill="black"/>
<path d="M43.7329 14.7838C44.0836 15.081 44.4538 15.4443 44.8305 15.7811C45.0743 15.3439 45.2912 14.8917 45.4799 14.4272C45.0643 14.0441 44.6681 13.6941 44.2979 13.3903C44.1478 13.8699 43.9588 14.336 43.7329 14.7838Z" fill="black"/>
<path d="M41.4664 31.9822C41.2002 31.7907 40.8884 31.5529 40.5442 31.2755C40.2506 31.6588 39.9126 32.0048 39.5376 32.3058C39.8818 32.5832 40.187 32.8276 40.4728 33.0257C40.8377 32.7128 41.1706 32.3632 41.4664 31.9822Z" fill="black"/>
<path d="M37.2778 17.6172L37.2386 17.6951L37.2909 17.6302L37.2778 17.6172Z" fill="black"/>
<path d="M44.9084 26.3947C44.804 26.2576 44.6537 26.1643 44.486 26.1327C44.3184 26.101 44.1451 26.1332 43.9992 26.223L42.7004 27.0419V25.721C42.7004 25.5458 42.6319 25.3779 42.5102 25.254C42.3884 25.1301 42.2232 25.0605 42.0509 25.0605C41.8787 25.0605 41.7135 25.1301 41.5917 25.254C41.4699 25.3779 41.4015 25.5458 41.4015 25.721V28.1251V29.5583L40.0572 28.5148C39.9209 28.411 39.7523 28.3612 39.5826 28.3746C39.413 28.388 39.2539 28.4636 39.135 28.5874C39.0747 28.6423 39.0272 28.7102 38.996 28.7861C38.9647 28.8619 38.9504 28.9439 38.9541 29.0261C38.9579 29.1083 38.9795 29.1886 39.0175 29.2612C39.0555 29.3339 39.109 29.397 39.1739 29.446L41.3625 31.1434V43.5865C41.3625 43.7617 41.431 43.9297 41.5527 44.0535C41.6745 44.1774 41.8397 44.247 42.012 44.247C42.1842 44.247 42.3494 44.1774 42.4712 44.0535C42.593 43.9297 42.6614 43.7617 42.6614 43.5865V28.4817L44.7201 27.2269C44.7901 27.1885 44.8512 27.1355 44.8994 27.0712C44.9476 27.0069 44.9818 26.9329 44.9996 26.8542C45.0174 26.7754 45.0185 26.6936 45.0028 26.6144C44.9871 26.5352 44.9549 26.4603 44.9084 26.3947Z" fill="#1D1D1B"/>
</g>
<defs>
<clipPath id="clip0">
<rect width="50" height="46" fill="white"/>
</clipPath>
</defs>
</svg>
