<svg width="74" height="74" viewBox="0 0 74 74" fill="none" xmlns="http://www.w3.org/2000/svg">
<path fill-rule="evenodd" clip-rule="evenodd" d="M37 74C57.4345 74 74 57.4345 74 37C74 16.5655 57.4345 0 37 0C16.5655 0 0 16.5655 0 37C0 57.4345 16.5655 74 37 74ZM37 66.6785C20.609 66.6785 7.32151 53.391 7.32151 37C7.32151 20.609 20.609 7.32151 37 7.32151C53.391 7.32151 66.6785 20.609 66.6785 37C66.6785 53.391 53.391 66.6785 37 66.6785Z" fill="#DBDBDB"/>
<path fill-rule="evenodd" clip-rule="evenodd" d="M46.3739 8.84077C46.3751 8.84116 46.3762 8.84154 46.3774 8.84193C52.288 10.8103 57.4293 14.5887 61.073 19.6419C64.7174 24.696 66.6785 30.769 66.6785 37H74C74 34.2943 73.7034 31.6125 73.1248 29C72.0423 24.1118 69.9726 19.466 67.0117 15.3597C64.0507 11.2534 60.2965 7.82229 56.0004 5.25121C53.7052 3.87758 51.2553 2.74943 48.6891 1.89496C48.6882 1.89465 48.6873 1.89435 48.6864 1.89404L46.3739 8.84077Z" fill="#50772D"/>
</svg>
