<svg xmlns="http://www.w3.org/2000/svg" width="47.09mm" height="63.77mm" viewBox="0 0 133.48 180.78"><path d="M237.3,148.47a40.46,40.46,0,0,0-6.52-2.9A42.31,42.31,0,1,0,146.9,156a32.13,32.13,0,1,0,39.85,49.79,39.1,39.1,0,1,0,50.55-57.36Z" transform="translate(-130.69 -102.65)" fill="#e5231f"/><path d="M221.12,225.18a42.59,42.59,0,0,1-31.74-14.26,35.64,35.64,0,1,1-43.27-56.58A45.81,45.81,0,0,1,237,143.05a42.92,42.92,0,0,1,5,2.37h0a42.59,42.59,0,0,1-20.89,79.76Zm-31-24.75,2.45,3.32a35.24,35.24,0,0,0,11.24,9.9,35.6,35.6,0,0,0,34.78-62.12h0a35.64,35.64,0,0,0-5.94-2.64l-2.18-.75-.18-2.29a38.81,38.81,0,1,0-76.94,9.59l.4,2.34-2,1.24a28.64,28.64,0,1,0,35.51,44.37Z" transform="translate(-130.69 -102.65)" fill="#1d1d1b" stroke="#1d1d1b" stroke-miterlimit="10" stroke-width="0.75"/><path d="M207.52,164.71a4,4,0,0,0-5.54-1.12L193.79,169v-8.77a4,4,0,0,0-8,0v16.18h0V186l-8.23-7a4,4,0,1,0-5.17,6.11l13.4,11.34v82.94a4,4,0,0,0,8,0V178.63l12.61-8.37A4,4,0,0,0,207.52,164.71Z" transform="translate(-130.69 -102.65)" fill="#1d1d1b"/></svg>