<svg xmlns="http://www.w3.org/2000/svg" width="47.31mm" height="67.42mm" viewBox="0 0 134.1 191.1"><path d="M167.72,109.54,131.12,173a26.15,26.15,0,0,0,22.65,39.23h73.69A26.15,26.15,0,0,0,250.11,173L213.5,109.54A26.43,26.43,0,0,0,167.72,109.54Z" transform="translate(-123.56 -92.33)" fill="#49bdd1"/><path d="M227.46,216.18H153.77A30.16,30.16,0,0,1,127.65,171l36.61-63.41a30.13,30.13,0,0,1,26.35-15.21h0A30.13,30.13,0,0,1,217,107.54L253.58,171a30.16,30.16,0,0,1-26.12,45.23ZM171.19,111.54,134.58,175a22.16,22.16,0,0,0,19.19,33.23h73.69A22.16,22.16,0,0,0,246.65,175L210,111.54a22.44,22.44,0,0,0-38.85,0Z" transform="translate(-123.56 -92.33)" fill="#1d1d1b"/><path d="M207.52,164.71a4,4,0,0,0-5.54-1.12L193.79,169v-8.77a4,4,0,0,0-8,0v16.18h0V186l-8.23-7a4,4,0,1,0-5.17,6.11l13.4,11.34v82.94a4,4,0,0,0,8,0V178.63l12.61-8.37A4,4,0,0,0,207.52,164.71Z" transform="translate(-123.56 -92.33)" fill="#1d1d1b"/></svg>