<svg xmlns="http://www.w3.org/2000/svg" width="49.62mm" height="76.2mm" viewBox="0 0 140.67 216"><polygon points="70.33 9.35 6.32 144.65 134.35 144.65 70.33 9.35" fill="#f07e17"/><path d="M259.92,216.07H119.25L189.58,67.43Zm-128-8h115.4L189.58,86.13Z" transform="translate(-119.25 -67.43)" fill="#1d1d1b"/><path d="M207.52,164.71a4,4,0,0,0-5.54-1.12L193.79,169v-8.77a4,4,0,0,0-8,0v16.18h0V186l-8.23-7a4,4,0,1,0-5.17,6.11l13.4,11.34v82.94a4,4,0,0,0,8,0V178.63l12.61-8.37A4,4,0,0,0,207.52,164.71Z" transform="translate(-119.25 -67.43)" fill="#1d1d1b"/></svg>