<svg width="38" height="54" viewBox="0 0 38 54" fill="none" xmlns="http://www.w3.org/2000/svg">
<path d="M31.3493 13.9264C30.7561 13.6 30.135 13.3262 29.4933 13.1082C29.3687 11.4981 28.9157 9.92983 28.1617 8.49826C27.4078 7.06669 26.3686 5.80162 25.107 4.77963C23.8454 3.75763 22.3877 2.99997 20.8221 2.5525C19.2565 2.10502 17.6156 1.97704 15.9986 2.1763C14.3817 2.37556 12.8223 2.89792 11.415 3.71176C10.0076 4.5256 8.78154 5.61399 7.81093 6.91106C6.84032 8.20813 6.14537 9.6869 5.76815 11.2579C5.39092 12.8288 5.33927 14.4593 5.61631 16.0506C4.51277 16.724 3.56621 17.622 2.83934 18.6852C2.11247 19.7485 1.62188 20.9527 1.40009 22.218C1.17829 23.4834 1.23036 24.781 1.55283 26.0249C1.8753 27.2688 2.46081 28.4306 3.27057 29.4333C4.08034 30.436 5.09586 31.2567 6.24985 31.8411C7.40384 32.4254 8.66996 32.76 9.96431 32.8228C11.2587 32.8855 12.5517 32.675 13.7577 32.205C14.9637 31.7351 16.0552 31.0165 16.9599 30.0969C17.947 31.4197 19.2202 32.5068 20.6862 33.2788C22.1522 34.0507 23.7738 34.4879 25.4324 34.5582C27.0909 34.6286 28.7443 34.3304 30.2715 33.6854C31.7987 33.0405 33.161 32.0651 34.2586 30.8308C35.3562 29.5965 36.1612 28.1345 36.6149 26.5519C37.0685 24.9693 37.1591 23.3062 36.8802 21.6843C36.6013 20.0625 35.9598 18.5231 35.0028 17.1788C34.0458 15.8344 32.7974 14.7193 31.3493 13.9151V13.9264Z" fill="current"/>
<path d="M25.7435 35.5671C24.0367 35.5646 22.3496 35.205 20.7926 34.5118C19.2356 33.8185 17.8439 32.8073 16.7086 31.5442C15.6567 32.4057 14.4404 33.048 13.1322 33.4328C11.8241 33.8176 10.4511 33.9369 9.09532 33.7836C7.73958 33.6302 6.42899 33.2074 5.24196 32.5404C4.05493 31.8734 3.01586 30.976 2.18694 29.9018C1.35801 28.8276 0.756264 27.5987 0.4177 26.2886C0.0791357 24.9786 0.0107144 23.6143 0.21653 22.2774C0.422346 20.9406 0.89817 19.6586 1.61553 18.5082C2.33288 17.3578 3.27703 16.3627 4.39147 15.5823C4.06102 12.2294 5.06471 8.88118 7.18869 6.25092C9.31268 3.62067 12.3891 1.91635 15.7624 1.50107C19.1357 1.0858 22.5393 1.9924 25.2481 4.02771C27.9568 6.06303 29.7566 9.06617 30.2639 12.3973C30.7523 12.5896 31.2278 12.8129 31.6872 13.0659C34.0308 14.3651 35.8728 16.3987 36.9242 18.8475C37.9757 21.2963 38.177 24.0217 37.4966 26.5962C36.8163 29.1707 35.2927 31.4484 33.1651 33.072C31.0374 34.6956 28.426 35.5732 25.7407 35.5671H25.7435ZM16.9192 28.5848L17.6166 29.5214C18.4689 30.6689 19.56 31.6213 20.8161 32.3143C23.158 33.5735 25.906 33.868 28.4653 33.1341C31.0246 32.4002 33.1893 30.697 34.4909 28.393C35.7925 26.0891 36.1262 23.3699 35.4198 20.8239C34.7134 18.2779 33.0237 16.1101 30.7165 14.7896C30.1769 14.4908 29.611 14.2415 29.0256 14.0448L28.4051 13.8332L28.3538 13.1872C28.2385 11.7108 27.8221 10.2729 27.1299 8.96055C26.4376 7.64819 25.484 6.48864 24.3266 5.55204C23.1692 4.61544 21.8322 3.92126 20.3963 3.51149C18.9605 3.10172 17.4556 2.98488 15.9729 3.16804C14.4902 3.35119 13.0603 3.83055 11.7699 4.57709C10.4795 5.32363 9.35525 6.32186 8.46526 7.51136C7.57528 8.70087 6.93802 10.0569 6.59204 11.4975C6.24606 12.9381 6.19855 14.4333 6.45239 15.8927L6.56625 16.5528L5.99694 16.9026C5.01052 17.5013 4.16394 18.3012 3.51346 19.2492C2.86298 20.1971 2.42348 21.2713 2.22417 22.4006C2.02485 23.5298 2.07029 24.6881 2.35745 25.7986C2.64461 26.9091 3.16692 27.9463 3.88969 28.8413C4.61245 29.7363 5.51912 30.4687 6.54946 30.9897C7.5798 31.5107 8.71022 31.8085 9.86561 31.8632C11.021 31.9179 12.1749 31.7284 13.2507 31.3071C14.3265 30.8858 15.2995 30.2425 16.1051 29.4199L16.9192 28.5848Z" fill="#1D1D1B" stroke="#1D1D1B" stroke-width="0.264562" stroke-miterlimit="10"/>
<path d="M21.8722 20.5078C21.7052 20.2588 21.4453 20.0857 21.1496 20.0265C20.854 19.9673 20.5467 20.0267 20.2952 20.1918L17.9638 21.718V19.2439C17.9638 18.9446 17.8439 18.6576 17.6304 18.446C17.4168 18.2344 17.1272 18.1155 16.8252 18.1155C16.5232 18.1155 16.2336 18.2344 16.0201 18.446C15.8066 18.6576 15.6866 18.9446 15.6866 19.2439V23.8085V26.5139L13.3439 24.5391C13.1132 24.3457 12.8145 24.251 12.5134 24.2759C12.2124 24.3008 11.9336 24.4432 11.7384 24.6717C11.5433 24.9003 11.4477 25.1964 11.4728 25.4948C11.4979 25.7931 11.6416 26.0694 11.8722 26.2628L15.6866 29.462V52.8603C15.6866 53.1595 15.8066 53.4466 16.0201 53.6582C16.2336 53.8698 16.5232 53.9887 16.8252 53.9887C17.1272 53.9887 17.4168 53.8698 17.6304 53.6582C17.8439 53.4466 17.9638 53.1595 17.9638 52.8603V24.4348L21.5534 22.0735C21.6781 21.9915 21.7854 21.886 21.8689 21.7629C21.9525 21.6398 22.0108 21.5016 22.0404 21.3562C22.07 21.2107 22.0704 21.0609 22.0415 20.9154C22.0127 20.7698 21.9551 20.6313 21.8722 20.5078Z" fill="#1D1D1B"/>
</svg>
