<svg xmlns="http://www.w3.org/2000/svg" width="36.51mm" height="67.52mm" viewBox="0 0 103.5 191.41"><path d="M236.83,162.07c0,35.77-47.25,64.77-47.25,64.77s-47.25-29-47.25-64.77S189.58,97.3,189.58,97.3,236.83,126.3,236.83,162.07Z" transform="translate(-137.83 -92.02)" fill="#7fba28"/><path d="M189.58,232.12l-2.35-1.44a150,150,0,0,1-24.44-19.61c-16.56-16.43-25-32.92-25-49s8.4-32.56,25-49a150.35,150.35,0,0,1,24.44-19.62L189.58,92l2.36,1.44a150.83,150.83,0,0,1,24.44,19.62c16.56,16.43,25,32.91,25,49s-8.39,32.57-25,49a150.43,150.43,0,0,1-24.44,19.61Zm0-129.44c-9.27,6.29-42.75,31-42.75,59.39s33.47,53.1,42.75,59.39c9.28-6.29,42.75-31,42.75-59.39S198.86,109,189.58,102.68Z" transform="translate(-137.83 -92.02)" fill="#1d1d1b"/><path d="M207.52,164.71a4,4,0,0,0-5.54-1.12L193.79,169v-8.77a4,4,0,0,0-8,0v16.18h0V186l-8.23-7a4,4,0,1,0-5.17,6.11l13.4,11.34v82.94a4,4,0,0,0,8,0V178.63l12.61-8.37A4,4,0,0,0,207.52,164.71Z" transform="translate(-137.83 -92.02)" fill="#1d1d1b"/></svg>