<svg width="38" height="54" viewBox="0 0 38 54" fill="none" xmlns="http://www.w3.org/2000/svg">
<path d="M31.739 19.7623C31.739 29.8537 18.5 38.035 18.5 38.035C18.5 38.035 5.26099 29.8537 5.26099 19.7623C5.26099 9.67102 18.5 1.48962 18.5 1.48962C18.5 1.48962 31.739 9.67102 31.739 19.7623Z" fill="current"/>
<path d="M18.5007 39.525L17.8423 39.1187C15.3741 37.5204 13.0789 35.6662 10.9944 33.5864C6.35443 28.9512 3.98962 24.2991 3.98962 19.7627C3.98962 15.2262 6.34323 10.577 10.9944 5.93896C13.0793 3.85875 15.3744 2.00363 17.8423 0.40382L18.5007 -0.00524902L19.162 0.401C21.6293 2.00161 23.9243 3.85666 26.0098 5.93613C30.6498 10.5713 33.0146 15.2206 33.0146 19.7599C33.0146 24.2991 30.6638 28.9484 26.0098 33.5836C23.9247 35.6627 21.6296 37.5169 19.162 39.1159L18.5007 39.525ZM18.5007 3.00776C15.9033 4.78228 6.52255 11.7534 6.52255 19.7627C6.52255 27.772 15.9005 34.7431 18.5007 36.5176C21.1009 34.7431 30.4789 27.772 30.4789 19.7627C30.4789 11.7534 21.1009 4.79074 18.5007 3.00776Z" fill="#1D1D1B"/>
<path d="M23.5266 20.5071C23.3622 20.2581 23.1064 20.085 22.8154 20.0258C22.5244 19.9666 22.2219 20.026 21.9744 20.1911L19.6796 21.7174V19.2432C19.6796 18.9439 19.5615 18.6569 19.3513 18.4453C19.1411 18.2336 18.8561 18.1147 18.5588 18.1147C18.2616 18.1147 17.9765 18.2336 17.7663 18.4453C17.5561 18.6569 17.4381 18.9439 17.4381 19.2432V23.8079V26.5134L15.1321 24.5385C14.9051 24.3451 14.611 24.2504 14.3147 24.2753C14.0183 24.3002 13.7439 24.4426 13.5518 24.6711C13.3597 24.8997 13.2657 25.1958 13.2904 25.4942C13.3151 25.7926 13.4565 26.0689 13.6835 26.2623L17.4381 29.4615V52.8603C17.4381 53.1596 17.5561 53.4466 17.7663 53.6582C17.9765 53.8698 18.2616 53.9887 18.5588 53.9887C18.8561 53.9887 19.1411 53.8698 19.3513 53.6582C19.5615 53.4466 19.6796 53.1596 19.6796 52.8603V24.4342L23.2128 22.0728C23.3356 21.9909 23.4412 21.8853 23.5234 21.7622C23.6057 21.6391 23.663 21.5009 23.6922 21.3555C23.7213 21.2101 23.7217 21.0603 23.6933 20.9147C23.6649 20.7691 23.6082 20.6306 23.5266 20.5071Z" fill="#1D1D1B"/>
</svg>
