<svg xmlns="http://www.w3.org/2000/svg" width="42.03mm" height="65.44mm" viewBox="0 0 119.14 185.49"><circle cx="59.57" cy="59.57" r="55.07" fill="#3d7cbf"/><path d="M189.58,217.07a59.57,59.57,0,1,1,59.57-59.56A59.63,59.63,0,0,1,189.58,217.07Zm0-110.13a50.57,50.57,0,1,0,50.57,50.57A50.63,50.63,0,0,0,189.58,106.94Z" transform="translate(-130.01 -97.94)" fill="#1d1d1b"/><path d="M207.52,164.71a4,4,0,0,0-5.54-1.12L193.79,169v-8.77a4,4,0,0,0-8,0v16.18h0V186l-8.23-7a4,4,0,1,0-5.17,6.11l13.4,11.34v82.94a4,4,0,0,0,8,0V178.63l12.61-8.37A4,4,0,0,0,207.52,164.71Z" transform="translate(-130.01 -97.94)" fill="#1d1d1b"/></svg>