<svg xmlns="http://www.w3.org/2000/svg" width="47" height="69" viewBox="0 0 133.29 195.41"><path d="M71.64,4H95.85a33.44,33.44,0,0,1,33.44,33.44V61.65a67.64,67.64,0,0,1-67.64,67.64H37.44A33.44,33.44,0,0,1,4,95.85V71.64A67.64,67.64,0,0,1,71.64,4Z" fill="#7fba28"/><path d="M184.59,221.31H160.38a37.48,37.48,0,0,1-37.44-37.44V159.66A71.72,71.72,0,0,1,194.57,88h24.22a37.47,37.47,0,0,1,37.43,37.44v24.21A71.72,71.72,0,0,1,184.59,221.31ZM194.57,96a63.71,63.71,0,0,0-63.63,63.64v24.21a29.47,29.47,0,0,0,29.44,29.44h24.21a63.71,63.71,0,0,0,63.63-63.64V125.46A29.47,29.47,0,0,0,218.79,96Z" transform="translate(-122.94 -88.02)" fill="#1d1d1b"/><path d="M207.52,164.71a4,4,0,0,0-5.54-1.12L193.79,169v-8.77a4,4,0,0,0-8,0v16.18h0V186l-8.23-7a4,4,0,1,0-5.17,6.11l13.4,11.34v82.94a4,4,0,0,0,8,0V178.63l12.61-8.37A4,4,0,0,0,207.52,164.71Z" transform="translate(-122.94 -88.02)" fill="#1d1d1b"/></svg>