<svg width="38" height="54" viewBox="0 0 38 54" fill="none" xmlns="http://www.w3.org/2000/svg">
<path d="M18.9987 2.34009L1.70728 36.1615H36.2928L18.9987 2.34009Z" fill="current"/>
<path d="M38 37.1591H0L18.9987 0.00305176L38 37.1591ZM3.42262 35.1593H34.5963L18.9987 4.67756L3.42262 35.1593Z" fill="#1D1D1B"/>
<path d="M23.8449 24.3203C23.6864 24.0998 23.4398 23.9464 23.1592 23.8939C22.8786 23.8414 22.587 23.8941 22.3484 24.0404L20.136 25.3927V23.2005C20.136 22.9353 20.0221 22.6809 19.8195 22.4934C19.6168 22.3059 19.342 22.2006 19.0554 22.2006C18.7688 22.2006 18.494 22.3059 18.2914 22.4934C18.0887 22.6809 17.9749 22.9353 17.9749 23.2005V27.245V29.6423L15.7516 27.8925C15.5328 27.7211 15.2493 27.6372 14.9636 27.6592C14.6778 27.6812 14.4133 27.8074 14.2281 28.0099C14.0429 28.2125 13.9522 28.4748 13.976 28.7392C13.9998 29.0036 14.1362 29.2484 14.355 29.4198L17.9749 32.2545V52.9873C17.9749 53.2525 18.0887 53.5068 18.2914 53.6943C18.494 53.8819 18.7688 53.9872 19.0554 53.9872C19.342 53.9872 19.6168 53.8819 19.8195 53.6943C20.0221 53.5068 20.136 53.2525 20.136 52.9873V27.8L23.5424 25.7077C23.6608 25.6351 23.7625 25.5415 23.8418 25.4325C23.9212 25.3234 23.9764 25.2009 24.0045 25.0721C24.0326 24.9432 24.033 24.8105 24.0056 24.6815C23.9782 24.5525 23.9236 24.4298 23.8449 24.3203Z" fill="#1D1D1B"/>
</svg>
