<svg xmlns="http://www.w3.org/2000/svg" width="158.32mm" height="102.82mm" viewBox="0 0 448.78 291.47"><g style="isolation:isolate"><path d="M195.37,216.53l7.29-9.14a3,3,0,1,0-4.67-3.71l-2.62,3.25v-9.56a3,3,0,1,0-6,0v17.9l-8.52-9.13a3,3,0,1,0-4.36,4.08L189.41,224v4a23.33,23.33,0,1,1-21.86-40.11l2.46-.75-.37-2.54a23.34,23.34,0,1,1,46.17.19l-.38,2.49,2.39.79a23.33,23.33,0,1,1-22.44,39.9Zm26.6-33.3c.05-.67.07-1.35.07-2a29.31,29.31,0,0,0-58.62,0c0,.58,0,1.16.05,1.74a29.31,29.31,0,1,0,25.93,52.32V260h-3.33V419.08q0,10.67,6.32,17t16.73,6.31a60.4,60.4,0,0,0,10.64-1.11,51.69,51.69,0,0,0,10.44-2.84l-2.47-9.91a35.29,35.29,0,0,1-7.06,1.85,41.39,41.39,0,0,1-6.57.62q-7.2,0-11.28-4.21t-4.08-11.4V260h-3.37V235.27A29.3,29.3,0,1,0,222,183.22Z" transform="translate(-144.85 -151.9)" fill="#1e1e1c"/><path d="M253,371.51a63,63,0,0,1,4.83-20.67,51.91,51.91,0,0,1,10.88-16.4,50.13,50.13,0,0,1,15.73-10.65,49.32,49.32,0,0,1,38.16,0,50.26,50.26,0,0,1,15.76,10.65,55.68,55.68,0,0,1,11.18,16.23,58.56,58.56,0,0,1,5.08,20.81ZM306.3,248.89,317.48,244a2.87,2.87,0,1,0-2.32-5.26l-8.84,3.89V233.1a2.88,2.88,0,0,0-5.75,0v21.81l-5.47-3.17a2.86,2.86,0,0,0-3.19.2,2.87,2.87,0,0,0,.31,4.77l8.35,4.83v4.69h-10.5a19.06,19.06,0,0,1-16.93-27.82l12.28-23.76a20.67,20.67,0,0,1,36.71,0l12.27,23.76a19.06,19.06,0,0,1-16.94,27.82H306.3Zm42.29,80.63a62.64,62.64,0,0,0-20.07-14.37,59.24,59.24,0,0,0-22.22-5.26V272h11.14a24.82,24.82,0,0,0,22.07-36.21L327.23,212a26.4,26.4,0,0,0-46.92,0L268,235.77a24.83,24.83,0,0,0,22,36.21h10.48v37.9a59.37,59.37,0,0,0-22.21,5.17,61.61,61.61,0,0,0-19.94,14.25A68.27,68.27,0,0,0,240.34,376a69.47,69.47,0,0,0,18.2,47.44A62.2,62.2,0,0,0,278.74,438,60,60,0,0,0,304,443.36,64.33,64.33,0,0,0,321.35,441a63.48,63.48,0,0,0,15.48-6.57,54.14,54.14,0,0,0,12.37-10,40.93,40.93,0,0,0,8.05-12.76l-10.9-3a36.62,36.62,0,0,1-6.8,10,43,43,0,0,1-9.91,7.8,53.44,53.44,0,0,1-12,5.08,47.19,47.19,0,0,1-13.16,1.87,46.57,46.57,0,0,1-19.07-4,50.58,50.58,0,0,1-15.73-10.9,58.88,58.88,0,0,1-11.28-16.48,57.75,57.75,0,0,1-5.22-20.69h113a6.9,6.9,0,0,0,.24-2.35V376a68.77,68.77,0,0,0-4.71-25.4A65.85,65.85,0,0,0,348.59,329.52Z" transform="translate(-144.85 -151.9)" fill="#1e1e1c"/><path d="M476.66,403.72q0,4.69-4,9.91-6.45,8.94-18.46,14.37a63.23,63.23,0,0,1-26.38,5.45,35.92,35.92,0,0,1-13-2.35,33.17,33.17,0,0,1-10.51-6.44,28.45,28.45,0,0,1-6.94-9.79,30,30,0,0,1-2.47-12.14A22.89,22.89,0,0,1,398,391a27.07,27.07,0,0,1,8.79-9.05,47.11,47.11,0,0,1,13.63-5.82A68.67,68.67,0,0,1,438,374a113.19,113.19,0,0,1,20,1.76,99.78,99.78,0,0,1,18.58,5.22Zm-65.61-149a5.13,5.13,0,1,1,5.12-5.13A5.13,5.13,0,0,1,411.05,254.76ZM449.54,261a9.08,9.08,0,1,1,9.08,9.07,9.08,9.08,0,0,1-9.08-9.07Zm-34.38-39.06a15.51,15.51,0,1,1,15.5,15.5,15.5,15.5,0,0,1-15.5-15.5Zm73.9,201.61V360.61q0-23.79-13.37-37.28T439,309.83c-1.81,0-3.63.09-5.46.26v-28L447.73,271a14.85,14.85,0,1,0-3-4.95l-11.18,8.79V243a21.25,21.25,0,1,0-5.75,0v19.94l-7.56-7.49a10.87,10.87,0,1,0-4.23,3.9L427.81,271v39.88Q410.59,314,392,326.68l4.71,8.41a102.64,102.64,0,0,1,21.43-11.39,56.75,56.75,0,0,1,19.94-4q17.85,0,28.24,10.78t10.44,29.08v12.67a103.54,103.54,0,0,0-18.95-5.08,120.49,120.49,0,0,0-20.94-1.86,79.11,79.11,0,0,0-21.8,2.85,54.75,54.75,0,0,0-17,7.93,38.18,38.18,0,0,0-11.06,12,30.49,30.49,0,0,0-4,15.36,38.69,38.69,0,0,0,3.22,15.73,37.46,37.46,0,0,0,9,12.63,44.15,44.15,0,0,0,30.1,11.52,72.71,72.71,0,0,0,30-6.19,57.78,57.78,0,0,0,22.82-17.86V430a14,14,0,0,0,3.48,8,10,10,0,0,0,7.92,3.35c.66,0,1.45,0,2.36-.13a25.82,25.82,0,0,0,2.6-.37V429.73C490.9,429.73,489.06,427.67,489.06,423.54Z" transform="translate(-144.85 -151.9)" fill="#1e1e1c"/><path d="M506.8,207.88l2.72-1.55-1.92-2.46a15.5,15.5,0,0,1-3.3-9.61,15.66,15.66,0,0,1,25.65-12l2.09,1.73,1.73-2.11a16.3,16.3,0,0,1,28.69,13.4l-.49,2.54,2.51.6a14.12,14.12,0,0,1-1.62,27.75l-1.89.2-.46,1.79a21.24,21.24,0,0,1-20.6,16h-.48v-6.38l10.79-8.24a2.7,2.7,0,0,0-3.28-4.29l-7.51,5.74v-9.74a2.73,2.73,0,0,0,0-1.87v-4.54a2.7,2.7,0,0,0-4.09-2.45,2.67,2.67,0,0,0-1.3,2.45v1.39l-9.59-3.88a2.7,2.7,0,0,0-3.52,1.49,2.63,2.63,0,0,0,0,2.06,2.7,2.7,0,0,0,1.49,1.46L534,222v21.29a21.13,21.13,0,0,1-9.61-5.87L523.14,236l-1.75.75a16.21,16.21,0,0,1-14.59-28.9Zm75.42,51.9a46.4,46.4,0,0,0-14.37-2.24q-17.08,0-26.75,13.25c-.59.8-1.11,1.67-1.65,2.53V249.46h.48a26.87,26.87,0,0,0,25.36-18.32,19.52,19.52,0,0,0,2.78-37.33c0-.58.07-1.16.07-1.72a21.69,21.69,0,0,0-36.8-15.58,21.07,21.07,0,0,0-29.63,28.26,21.62,21.62,0,0,0,13.09,38.77,21.11,21.11,0,0,0,7-1.18,26.28,26.28,0,0,0,12.22,6.42V286a82.44,82.44,0,0,0-2.63,21.83v4.27H513.34v10.14h18.09V440.88h12.39V322.21h36.67V312.07H543.82v-4.48q0-19.06,6.81-29.08t19.45-10a32.25,32.25,0,0,1,10.53,1.73,28.87,28.87,0,0,1,8.55,4.47l4.48-8.95A33.74,33.74,0,0,0,582.22,259.78Z" transform="translate(-144.85 -151.9)" fill="#1e1e1c"/><path d="M182.88,181.65c1.13,0,2.26,0,3.39.16s2.25.28,3.36.5a33.69,33.69,0,0,1,3.29.83,32.89,32.89,0,0,1,3.2,1.14c1,.43,2.07.92,3.07,1.45a33,33,0,0,1,2.91,1.75c.94.63,1.85,1.3,2.73,2s1.71,1.48,2.51,2.28a30.14,30.14,0,0,1,2.28,2.52,33.71,33.71,0,0,1,2,2.72c.63.94,1.21,1.92,1.74,2.91a33,33,0,0,1,1.45,3.07,33.53,33.53,0,0,1,2,6.5c.22,1.11.39,2.23.5,3.35s.17,2.26.17,3.4-.06,2.26-.17,3.39-.28,2.24-.5,3.36-.49,2.2-.82,3.29a33.93,33.93,0,0,1-1.15,3.2,34.76,34.76,0,0,1-3.19,6c-.63.94-1.31,1.85-2,2.73a31.68,31.68,0,0,1-2.28,2.51c-.8.8-1.64,1.56-2.51,2.28s-1.79,1.39-2.73,2a33,33,0,0,1-2.91,1.75c-1,.53-2,1-3.07,1.45a33,33,0,0,1-3.2,1.15c-1.08.32-2.18.6-3.29.82s-2.23.39-3.36.5-2.26.17-3.39.17-2.27-.06-3.39-.17-2.25-.28-3.36-.5-2.21-.5-3.3-.82a32.77,32.77,0,0,1-3.19-1.15c-1-.43-2.07-.92-3.07-1.45a33,33,0,0,1-2.91-1.75,32.08,32.08,0,0,1-2.73-2q-1.32-1.08-2.52-2.28c-.8-.8-1.56-1.64-2.28-2.51s-1.39-1.79-2-2.73-1.21-1.91-1.75-2.91-1-2-1.45-3.07-.81-2.12-1.14-3.2-.61-2.18-.83-3.29-.38-2.24-.5-3.36-.16-2.26-.16-3.39.05-2.27.16-3.4.28-2.24.5-3.35a33.88,33.88,0,0,1,.83-3.3c.33-1.08.71-2.15,1.14-3.2s.92-2.07,1.45-3.07,1.12-2,1.75-2.91a33.59,33.59,0,0,1,2-2.72q1.08-1.32,2.28-2.52t2.52-2.28a32.08,32.08,0,0,1,2.73-2,33,33,0,0,1,2.91-1.75c1-.53,2-1,3.07-1.45a32.7,32.7,0,0,1,3.19-1.14c1.09-.33,2.19-.61,3.3-.83s2.23-.39,3.36-.5S181.75,181.65,182.88,181.65Z" transform="translate(-144.85 -151.9)" fill="#8cb174" style="mix-blend-mode:multiply"/><circle cx="157.93" cy="90.38" r="29.12" fill="#b0a96d" style="mix-blend-mode:multiply"/><path d="M410,239.88a9.64,9.64,0,0,1,2,.21,9.47,9.47,0,0,1,1.93.63,9.81,9.81,0,0,1,1.78,1,10.56,10.56,0,0,1,1.55,1.36,10.42,10.42,0,0,1,1.28,1.67,10.78,10.78,0,0,1,.95,1.89,12.13,12.13,0,0,1,.59,2.06,12.09,12.09,0,0,1,0,4.27,11.88,11.88,0,0,1-.59,2.06,10.94,10.94,0,0,1-2.23,3.56,10,10,0,0,1-1.55,1.36,9.81,9.81,0,0,1-1.78,1,9.47,9.47,0,0,1-1.93.63A9.82,9.82,0,0,1,404.3,260a10.56,10.56,0,0,1-1.56-1.36,11.46,11.46,0,0,1-1.28-1.66,11.62,11.62,0,0,1-.95-1.9,11,11,0,0,1-.58-2.06,11.5,11.5,0,0,1,0-4.27,11.25,11.25,0,0,1,.58-2.06,11.52,11.52,0,0,1,.95-1.89,11,11,0,0,1,1.28-1.67,11.18,11.18,0,0,1,1.56-1.36,9.74,9.74,0,0,1,5.71-1.85Z" transform="translate(-144.85 -151.9)" fill="#22b7d1" style="mix-blend-mode:multiply"/><path d="M432.27,193.66a19.38,19.38,0,0,1,3.81.38,19.46,19.46,0,0,1,14.23,11.68,18.65,18.65,0,0,1,1.12,3.66,19.8,19.8,0,0,1,0,7.62,18.65,18.65,0,0,1-1.12,3.66,19.37,19.37,0,0,1-4.23,6.34,19.84,19.84,0,0,1-3,2.43,19.48,19.48,0,0,1-14.66,2.91,19.78,19.78,0,0,1-3.66-1.11,19.46,19.46,0,0,1-3.37-1.8,19.84,19.84,0,0,1-3-2.43,19.61,19.61,0,0,1-4.24-6.34,19.33,19.33,0,0,1-1.11-3.66,19.8,19.8,0,0,1,0-7.62,19.33,19.33,0,0,1,1.11-3.66,19.61,19.61,0,0,1,4.24-6.34,19.84,19.84,0,0,1,3-2.43,19.46,19.46,0,0,1,3.37-1.8,19.78,19.78,0,0,1,3.66-1.11A19.54,19.54,0,0,1,432.27,193.66Z" transform="translate(-144.85 -151.9)" fill="#22b7d1" style="mix-blend-mode:multiply"/><path d="M535.73,187.81c1,0,1.91.05,2.86.14s1.89.23,2.82.42,1.86.42,2.78.7a27,27,0,0,1,2.69,1,27.59,27.59,0,0,1,2.58,1.22c.84.45,1.66.94,2.45,1.47s1.56,1.1,2.3,1.7,1.44,1.25,2.11,1.92a25.68,25.68,0,0,1,1.92,2.12,27.13,27.13,0,0,1,1.7,2.29c.53.8,1,1.61,1.47,2.45s.86,1.71,1.22,2.59.69,1.78,1,2.69.51,1.83.69,2.77a27.2,27.2,0,0,1,.42,2.83c.09.95.14,1.9.14,2.85s-.05,1.91-.14,2.85a26.81,26.81,0,0,1-.42,2.83c-.18.94-.42,1.86-.69,2.77a30.41,30.41,0,0,1-2.19,5.28c-.45.84-.94,1.66-1.47,2.45a27.13,27.13,0,0,1-1.7,2.29,25.68,25.68,0,0,1-1.92,2.12c-.67.68-1.38,1.31-2.11,1.92s-1.51,1.17-2.3,1.7-1.61,1-2.45,1.47a27.59,27.59,0,0,1-2.58,1.22c-.89.37-1.78.69-2.69,1s-1.84.5-2.78.69a26.62,26.62,0,0,1-2.82.42c-1,.09-1.9.14-2.86.14s-1.9-.05-2.85-.14a27.2,27.2,0,0,1-2.83-.42c-.93-.19-1.86-.42-2.77-.69s-1.81-.6-2.69-1a27.59,27.59,0,0,1-2.58-1.22c-.85-.45-1.66-.94-2.46-1.47s-1.55-1.1-2.29-1.7-1.44-1.24-2.12-1.92-1.31-1.38-1.92-2.12-1.17-1.5-1.7-2.29-1-1.61-1.47-2.45a29.36,29.36,0,0,1-2.18-5.28c-.28-.91-.51-1.83-.7-2.77s-.32-1.88-.42-2.83-.14-1.9-.14-2.85.05-1.9.14-2.85.24-1.89.42-2.83.42-1.86.7-2.77.6-1.81,1-2.69.77-1.74,1.22-2.59.94-1.65,1.47-2.45,1.1-1.56,1.7-2.29,1.25-1.45,1.92-2.12,1.38-1.31,2.12-1.92,1.5-1.17,2.29-1.7,1.61-1,2.46-1.47a27.59,27.59,0,0,1,2.58-1.22,26.1,26.1,0,0,1,2.69-1c.91-.28,1.84-.51,2.77-.7s1.88-.32,2.83-.42S534.78,187.81,535.73,187.81Z" transform="translate(-144.85 -151.9)" fill="#e7bd26" style="mix-blend-mode:multiply"/></g></svg>